<?xml version="1.0" encoding="utf-8"?>
<!-- Generator: Adobe Illustrator 24.0.2, SVG Export Plug-In . SVG Version: 6.00 Build 0)  -->
<svg version="1.1" id="Capa_1" xmlns="http://www.w3.org/2000/svg" xmlns:xlink="http://www.w3.org/1999/xlink" x="0px" y="0px"
	 viewBox="0 0 1280 640" style="enable-background:new 0 0 1280 640;" xml:space="preserve">
<style type="text/css">
	.st0{fill:#333333;}
</style>
<g transform="translate(0.000000,640.000000) scale(0.100000,-0.100000)">
	<path class="st0" d="M5530,5774c-553-158-580-166-580-183c0-10-4-21-10-27s-11-81-13-169l-3-160l-32-10l-32-9v-142v-142l-32-7
		c-75-16-426-96-460-106l-38-10v-174v-175h-117c-180,0-163,20-163-196v-184h-25c-14,0-71,7-125,16l-99,17l-3,130l-3,130l-220,74
		c-121,40-228,73-237,73c-10,0-18-7-18-15c0-17-10-18-62-6c-51,12-209-24-215-49c-5-20-68-34-108-24c-23,6-25,3-25-25
		c0-17-6-33-12-35c-7-2-48-12-91-23l-78-18l-2-578c-2-539-3-579-19-588c-15-9-18-25-18-110v-100l-36,3l-36,3l-1,405l-2,405l-50,3
		c-27,1-57,5-65,8c-8,4-51,8-95,10c-82,4-110,7-227,19l-68,8v63c0,35-4,64-8,64c-31,0-180,24-194,31c-11,6-18,4-22-6
		c-3-8-11-15-19-15c-7,0-30-9-51-20c-22-10-42-17-46-15c-5,3-10-2-14-10c-3-8-17-15-31-15s-25-4-25-9s-10-11-22-14
		c-13-4-49-20-80-37l-58-32v-249v-249l-22-5c-13-2-36-6-52-7c-25-3-30-8-31-31c-1-27,1-28,45-27c25,1,50,1,55,0c17-3-39-18-72-19
		l-33-1v-71c0-66-2-71-20-66c-10,3-27-1-37-9c-27-20-39-17-19,5c10,11,15,24,12,30c-4,5-2,12,4,16c13,8,13,25,0,25c-5,0-17-8-27-18
		c-27-28-50-34-55-14c-7,29,3,54,18,48c8-3,14-2,14,2c-1,14-25,39-35,35c-7-2-9,181-7,540l4,542l-74,13c-67,12-131,23-215,37
		c-26,5-33,11-33,29c0,41-40,57-153,61c-56,3-126,9-156,15c-60,11-131,13-155,4c-10-4-16-18-16-39c0-20-6-35-15-39
		c-12-4-15-24-15-94v-89l-67,9c-37,5-72,13-78,17c-5,5-22,11-37,15c-21,5-28,12-28,30c0,22-5,24-71,31c-51,5-76,13-87,26
		c-9,11-22,19-28,19c-13,0-24-45-24-101c0-28-4-39-15-39c-13,0-15-208-15-1810V560h6400h6400v959v958l-72,6c-40,4-89,9-108,12
		s-57,9-85,13l-50,7l-6,295c-3,162-6,295-7,296c-1,0-28,6-59,13c-32,7-68,19-81,28c-13,8-29,12-35,10c-7-2-36,5-64,15
		c-30,10-80,18-118,18h-65v35c0,19-5,35-11,35c-8,0-10,16-6,53c4,28,3,58-2,65c-24,39-235,68-261,37c-14-17-70-21-70-5
		c0,6-7,10-15,10c-13,0-15,67-15,540v540l-78,39c-80,40-106,48-132,39c-8-3-58-11-110-17s-150-19-217-28l-123-16v-428v-429h-30h-30
		v-60c0-45-4-62-15-66c-13-5-15-44-15-265v-259h-25c-23,0-25-3-25-52c0-29-3-63-6-75c-7-25-24-31-24-9c0,10-15,15-50,18
		c-35,2-50-1-50-9c0-7-4-13-10-13c-5,0-10,6-10,14c0,7-8,16-19,19c-17,4-18,27-23,432c-4,330-8,429-18,435c-7,4-76,25-153,45
		c-123,33-147,37-211,31c-39-4-105-9-146-13c-41-3-93-8-115-12l-40-7l-3-85l-3-86l-72-6c-40-2-76-3-80,0c-5,3-7,307-6,676l3,671
		l-59,27c-33,15-70,28-81,28c-12,1-96-35-187-78c-91-44-186-83-211-86c-44-7-46-6-46,17c0,13,6,31,13,40c14,19,186,94,205,90
		c6-2,12,2,12,9c0,6-8,9-17,6c-66-21-120-43-187-76c-42-20-76-33-76-29c0,18-28,7-33-13c-5-19-3-20,29-15c31,6,34,5,34-17
		c0-21-6-25-42-30c-23-3-51-1-62,5c-15,8-22,7-31-6c-17-22-35-20-35,5c0,17-5,20-27,15c-16-3-71-12-123-21c-52-8-105-18-117-20
		l-23-5v-690c0-546-3-690-12-690c-7,1-49,10-93,21c-117,29-136,32-180,33l-40,1l3,195c1,107-1,422-7,700c-8,469-11,518-36,685
		c-14,99-32,191-39,205c-8,14-19,48-25,76l-12,50l-127,52c-126,51-163,60-192,49c-23-8-73-18-95-18c-10,0-25-5-32-10c-6-6-17-8-23-4
		s-17,2-23-4c-7-5-22-10-32-10c-11,0-38-5-60-11c-22-7-51-13-65-13c-20-2-31-14-55-62c-19-38-37-61-50-64c-41-7-61-44-79-147
		c-34-198-38-267-43-736c-4-401-7-478-19-478c-8,0-14,5-14,10c0,6-6,10-14,10c-12,0-15,46-16,291c0,161-3,296-6,301
		c-8,13-45,26-155,54c-165,42-187,44-192,23c-6-24-87-28-87-5c0,25-18,28-98,16c-198-30-337-61-354-80c-36-43-38-29-38,290v310
		l-27,6c-16,4-31,12-35,18s-8,104-8,217v206l-157,52c-230,76-417,142-427,152C5789,5846,5762,5840,5530,5774z"/>
</g>
</svg>
