<?xml version="1.0" encoding="utf-8"?>
<!-- Generator: Adobe Illustrator 24.0.2, SVG Export Plug-In . SVG Version: 6.00 Build 0)  -->
<svg version="1.1" id="Capa_1" xmlns="http://www.w3.org/2000/svg" xmlns:xlink="http://www.w3.org/1999/xlink" x="0px" y="0px"
	 viewBox="0 0 1280 640" style="enable-background:new 0 0 1280 640;" xml:space="preserve">
<style type="text/css">
	.st0{fill:#6666FF;stroke:#FFFFFF;stroke-miterlimit:10;}
</style>
<g transform="translate(0.000000,640.000000) scale(0.100000,-0.100000)">
	<path class="st0" d="M9611,5708c5-135-4-593-11-607c-5-9-21-77-35-151c-28-142-37-160-84-160c-43,0-74-22-77-55c-3-32-55-85-84-85
		c-16,0-17-38-22-527c-3-291-1-557,3-593c5-36,11-286,15-557l7-492l-24-5c-13-4-58-2-99,3c-42,4-85,4-98,0c-13-5-61-9-108-9h-84
		v-365v-365h-29c-21,0-32,6-36,20c-5,17-15,20-59,20h-53l-8,118c-4,64-10,155-14,202l-6,85l-31,3l-31,3l-7,217c-3,119-7,361-7,538
		c-1,308,0,322,20,355c26,43,26,49,0,49c-20,0-21,3-15,88c4,48,9,129,12,180l6,92h-31c-18,0-34,7-40,18c-6,9-11,12-11,5s-9-9-27-4
		c-24,7-28,13-28,44c0,22-5,37-12,37s-13,19-15,48l-3,47l-13-30c-7-16-15-36-17-42c-3-8-21-13-45-13c-36,0-40,2-40,25
		c0,14-7,28-15,31c-12,5-15,30-15,140v134h-25c-18,0-25,5-25,20c0,11-6,20-13,20c-11,0-15,55-21,274c-3,150-4,281,0,290
		c4,10,1,16-9,16c-12,0-15-37-22-222c-5-169-10-225-21-235c-17-17-18-40-2-45c6-2,13-31,16-66c3-49,1-63-11-68c-14-5-105,14-148,31
		c-19,7-61-81-99-205c-12-41-24-70-25-65c-2,6-6,22-9,38c-4,15-10,27-15,27c-12,0-24-162-13-169s10,24,17-447c6-368,6-382-14-432
		c-12-29-21-62-21-74c0-16-3-18-14-9c-21,17-41-11-27-38c7-12,11-114,11-280v-261h-25c-29,0-45,26-51,83c-3,38-30,77-53,77
		s-44-31-48-73c-4-36-10-47-23-47c-14,0-19,12-25,57c-4,32-12,69-19,83c-8,16-13,97-15,235c-2,191-4,212-22,231c-16,18-19,36-19,135
		c0,74-4,119-12,127s-8,15,2,26c10,13,9,17-5,22c-15,6-16,9-4,18c11,9,13,59,11,277l-3,265l-187,12c-103,7-242,13-310,14l-123,3
		l1-283c0-155,3-296,7-312l6-30h-62h-61l-2-265l-3-266l-220-1l-220-1l-5,179l-5,180l-59,53l-59,53l-161-3l-161-4l-5,331
		c-4,268-8,334-19,348c-16,19-131,80-131,70c0-4-8,0-17,8c-10,9-53,34-95,57c-53,29-78,49-80,63c-4,26-68,38-68,13
		c0-23-46-28-345-37l-100-3l-6-725c-6-654-13-855-32-810c-3,8-7,24-9,35c-3,17-11,20-58,20c-53,0-55-1-58-28c-2-18-12-31-25-37
		c-12-5-34-20-49-35c-23-21-40-27-95-31c-38-3-83-7-100-10l-33-5v-84v-85h-110h-110l-1-62c-1-35-4-88-8-118l-6-55l-8,43
		c-7,43-15,50-34,31c-16-16-36,0-29,24c2,11-6,41-18,66c-13,25-40,85-60,134l-36,87v170v169l-42,11c-24,6-54,15-68,19l-25,8l-7,289
		c-3,159-11,307-17,329s-11,101-11,175c-1,158-15,350-33,434c-11,55-15,61-44,68c-31,8-31,9-36,81c-6,91-20,153-41,176
		c-23,25-66,157-66,202c0,21-4,40-9,43c-11,7-21-28-21-77c0-21-6-50-14-65s-17-44-21-65c-5-26-12-37-23-35c-20,4-28-29-48-189
		c-5-39-8-43-34-43c-27,0-29-3-35-47c-3-27-13-82-21-124c-8-45-14-140-14-235l-1-159l-47,51c-26,28-80,89-121,137
		c-60,71-71,90-61,102c9,11,4,18-31,35c-36,19-64,22-213,27c-191,6-242-1-239-35c2-15-22-44-84-101c-92-87-101-90-196-75
		c-31,6-37,11-37,30c0,18-5,24-23,24c-13,0-29-6-36-12c-10-11-14-10-22,5c-6,9-19,17-29,17s-24-8-30-17c-8-13-13-14-16-5
		c-7,16-46,16-63,0c-10-11-14-10-22,5c-14,24-42,21-67-8c-15-17-32-25-55-25c-18,0-43-7-55-16c-21-14-22-23-22-133v-118l-58-5
		c-37-4-81-17-120-37l-62-31v-153c0-83-3-236-7-339l-6-187l-31-3c-23-2-32-9-34-26c-3-18-10-22-36-22c-31,0-34-3-40-38
		c-3-20-6-62-6-93c0-47-4-59-26-80l-27-24l6,82c7,112,0,163-24,163c-10,0-20,4-23,9s-15,7-26,4c-12-3-20,0-20,7c0,8-8,10-24,6
		s-26-1-30,9c-4,12,3,15,32,16h37l-37,16l-38,15l-2,441l-3,441l-25,6c-18,4-26,14-28,33c-2,15-7,27-12,27s-10,14-12,31
		c-2,18-10,35-18,39c-47,23-69,30-110,32l-45,3l3,62c4,55,2,62-17,68c-12,3-21,13-21,20c0,20-18,28-46,21c-26-7-26-7-21-97
		c4-70,2-89-8-85c-21,8-55-23-55-50c0-13-4-24-8-24c-20,0-32-171-39-532l-6-388h-23c-12,0-25-7-28-16c-5-12-20-15-83-12
		c-67,3-78,1-81-14c-2-12,3-18,16-18c34,0,52-11,52-31c0-14-7-19-29-19c-16,0-42-5-57-10c-15-6-47-11-71-12l-44-2l6-36
		c6-34,4-36-32-50c-21-8-65-22-98-30c-48-12-60-19-60-35c0-13,8-21,23-23c45-7,16-27-32-24l-48,4l4-39l3-38l-95-5
		c-52-3-104-10-116-17c-26-15-33-61-35-212c-1-58-4-93-6-76c-3,16-13,40-24,53c-10,13-21,40-25,61c-4,20-10,41-14,46
		c-5,6-10,26-12,45c-3,30-7,35-28,35s-25-5-28-35c-2-19-10-39-18-43c-12-7-14-117-14-732V650h6400h6400v930v930h-24
		c-39,0-109-29-139-58c-36-33-77-96-77-117c0-8-7-15-15-15c-13,0-15,41-17,282c-3,274-4,283-23,286c-11,2-23,7-27,11
		c-14,13-7,456,7,500c6,17,5,22-3,17s-12,4-12,28c0,19,4,37,9,41c8,5,8,227-1,675c0,36,1,71,3,79c3,10-7,17-31,21c-19,3-44,11-56,18
		c-20,11-208,0-244-15c-8-3-19-5-25-4c-81,21-187,28-193,13c-1-4-32-7-68-7c-36,1-67-3-70-7c-2-3-5-119-6-256l-2-250l-38-6
		c-21-3-56-9-79-12c-22-3-42-11-44-18c-2-6-6-75-8-153c-3-120-7-146-22-163c-17-19-17-62-5-1045c7-564,10-1028,8-1030s-34,1-71,7
		l-67,11v116c0,64-3,166-7,228l-6,111l-29,6c-18,4-32,14-35,26c-3,13-14,20-29,20h-24v184c0,113-4,187-10,191c-5,3-10,27-10,52
		c0,30-6,53-17,65c-14,15-18,52-25,201c-4,100-11,208-14,239c-5,52-8,57-32,60c-23,3-30,14-61,100c-29,80-37,94-46,81
		c-11-14-13-13-19,10c-10,43-22,32-41-38c-9-35-23-69-31-76c-8-6-14-20-14-31c0-13-6-18-22-17c-69,6-68,7-68-92v-90l-202,6
		c-112,3-250,8-308,11l-106,5l-22-31l-23-30l1-565c0-510-1-566-16-572c-8-3-23,1-31,10c-13,12-17,49-21,180l-5,165l-34,7
		c-26,5-33,10-29,23c10,31-11,47-61,47c-46,0-47,1-54,35c-4,19-13,305-18,635c-6,330-16,825-21,1100c-6,275-10,570-10,655
		s-3,178-6,207c-6,49-8,52-43,60c-29,7-36,14-38,35c-1,15-7,36-12,47c-6,11-11,29-11,40c0,15-9,22-37,26c-65,11-72,15-82,48
		c-5,18-21,72-35,121c-14,48-26,101-26,117c0,17-6,32-15,35c-19,7-21,94-3,112c9,9,9,12-1,12c-9,0-12,17-10,63c1,34-1,79-5,99
		c-5,22-4,50,2,68c7,18,7,32,2,35s-9,62-7,130c1,95-1,125-11,125C9614,5750,9610,5736,9611,5708z"/>
</g>
</svg>
