<?xml version="1.0" encoding="utf-8"?>
<!-- Generator: Adobe Illustrator 24.0.2, SVG Export Plug-In . SVG Version: 6.00 Build 0)  -->
<svg version="1.1" id="Capa_1" xmlns="http://www.w3.org/2000/svg" xmlns:xlink="http://www.w3.org/1999/xlink" x="0px" y="0px"
	 viewBox="0 0 765.2 127.1" style="enable-background:new 0 0 765.2 127.1;" xml:space="preserve">
<style type="text/css">
	.st0{fill:#FFFFFF;}
</style>
<g id="Capa_2_1_">
	<g id="Capa_1-2">
		<path class="st0" d="M506.6,100.3c-18.1-0.1-32.8-14.8-32.7-32.9s14.8-32.8,32.9-32.7c18.1,0.1,32.7,14.7,32.7,32.8
			C539.5,85.7,524.7,100.3,506.6,100.3 M506.6,39c-15.8,0.1-28.5,12.9-28.4,28.6S491,96.1,506.8,96c15.7-0.1,28.4-12.8,28.4-28.5
			C535.2,51.7,522.4,39,506.6,39"/>
		<path class="st0" d="M203.9,94.3h-36.7v-56c0-0.7-0.5-1.3-1.2-1.3c0,0,0,0,0,0h-2c-0.7,0-1.3,0.6-1.3,1.2c0,0,0,0,0,0v58.1
			c0,1.2,1,2.1,2.2,2.1c0,0,0.1,0,0.1,0h39c0.7,0,1.3-0.5,1.3-1.2c0,0,0,0,0,0v-1.7C205.2,94.9,204.6,94.4,203.9,94.3
			C203.9,94.3,203.9,94.3,203.9,94.3"/>
		<path class="st0" d="M246.8,38.3c-0.8-1.1-2.3-1.4-3.5-0.6c-0.2,0.2-0.4,0.4-0.6,0.6l-29,57.2l-0.6,1.2c-0.2,0.4-0.2,0.9,0.1,1.2
			c0.2,0.4,0.6,0.6,1.1,0.6h2.2c0.5,0,1-0.3,1.2-0.8l27.1-53.6l26.9,53l0.2,0.5c0.2,0.5,0.7,0.8,1.2,0.8h2.2c0.4,0,0.8-0.2,1.1-0.6
			c0.2-0.4,0.3-0.8,0.1-1.2L246.8,38.3z"/>
		<path class="st0" d="M392.2,37.3c-1-0.3-2.1,0.2-2.6,1.1l-27.9,53.3l-27.9-53.3c-0.5-0.9-1.6-1.4-2.6-1.1c-1,0.2-1.7,1-1.7,2v58.1
			c0,0.7,0.6,1.3,1.3,1.3c0,0,0,0,0,0h2c0.7,0,1.3-0.6,1.3-1.2c0,0,0,0,0,0V48.4l25.7,49c0.8,1.1,2.3,1.4,3.5,0.6
			c0.2-0.2,0.4-0.4,0.6-0.6l25.6-49l0.1,49c0,0.7,0.6,1.3,1.3,1.3c0,0,0,0,0,0h2c0.7,0,1.3-0.5,1.3-1.2c0,0,0-0.1,0-0.1l-0.1-58.1
			C393.9,38.3,393.2,37.4,392.2,37.3"/>
		<path class="st0" d="M465.2,96.8l-29.6-58.4c-0.8-1.1-2.3-1.4-3.5-0.6c-0.2,0.2-0.4,0.4-0.6,0.6l-29,57.2l-0.6,1.2
			c-0.3,0.6-0.1,1.4,0.6,1.7c0.2,0.1,0.4,0.1,0.6,0.1h2.2c0.5,0,1-0.3,1.2-0.8l27.1-53.6l26.9,53l0.2,0.5c0.2,0.5,0.7,0.8,1.2,0.8
			h2.2c0.4,0,0.8-0.2,1.1-0.6C465.3,97.6,465.4,97.1,465.2,96.8"/>
		<path class="st0" d="M422.8,30.6v3c0,0.4,0.3,0.7,0.7,0.7h20.1c0.4,0,0.7-0.3,0.7-0.7c0,0,0,0,0,0v-3c0-0.4-0.3-0.7-0.7-0.7h-20.1
			C423.1,29.9,422.8,30.2,422.8,30.6"/>
		<path class="st0" d="M496.1,105.6v2.9c0,0.4,0.3,0.7,0.7,0.7c0,0,0,0,0,0h19.5c0.4,0,0.7-0.3,0.7-0.7c0,0,0,0,0,0v-2.9
			c0-0.4-0.3-0.7-0.7-0.7c0,0,0,0,0,0h-19.5C496.4,104.9,496.1,105.2,496.1,105.6C496.1,105.6,496.1,105.6,496.1,105.6"/>
		<path class="st0" d="M600.9,37.2h-2.2c-0.7,0-1.3,0.6-1.3,1.2c0,0,0,0,0,0v40.1c0,8.7-9.3,15.7-20.7,15.7S556,87.3,556,78.6
			l0.1-39.1l0.1-0.9c0.1-0.7-0.4-1.3-1.1-1.4c0,0-0.1,0-0.1,0h-2.2c-0.7,0-1.3,0.6-1.3,1.2c0,0,0,0,0,0v40.1c0,11,11.3,20,25.2,20
			s25.2-9,25.2-20l0.1-39.1l0.1-0.9c0.1-0.7-0.4-1.3-1.1-1.4C601,37.2,600.9,37.2,600.9,37.2"/>
		<path class="st0" d="M621.7,37.1h-2c-0.7,0-1.3,0.6-1.3,1.2c0,0,0,0,0,0v59c0,0.7,0.6,1.3,1.3,1.3c0,0,0,0,0,0h2
			c0.7,0,1.3-0.5,1.3-1.2c0,0,0,0,0-0.1V38.4C623,37.7,622.5,37.1,621.7,37.1C621.8,37.1,621.7,37.1,621.7,37.1"/>
		<path class="st0" d="M692.6,37.1h-2c-0.7,0-1.3,0.6-1.3,1.2c0,0,0,0,0,0l-0.1,51.9l-43.8-52.4c-0.6-0.7-1.7-1-2.6-0.6
			c-0.9,0.3-1.4,1-1.5,1.9v58.1c0,0.7,0.6,1.3,1.3,1.3c0,0,0,0,0,0h2c0.7,0,1.3-0.6,1.3-1.2c0,0,0,0,0,0V45.4l43.8,52.4
			c0.6,0.7,1.7,1,2.6,0.6c0.9-0.3,1.4-1,1.5-1.9l0.1-58.1C693.8,37.7,693.3,37.1,692.6,37.1C692.6,37.1,692.6,37.1,692.6,37.1"/>
		<path class="st0" d="M765.1,96.8l-0.6-1.2l0,0l-29-57.2c-0.8-1.1-2.3-1.4-3.5-0.6c-0.2,0.2-0.4,0.4-0.6,0.6l-29,57.2l-0.6,1.2
			c-0.2,0.4-0.2,0.9,0.1,1.2c0.2,0.4,0.6,0.6,1.1,0.6h2.2c0.5,0,1-0.3,1.2-0.8l27.1-53.6l26.9,53l0.2,0.5c0.2,0.5,0.7,0.8,1.2,0.8
			h2.2c0.5,0,0.9-0.2,1.1-0.6C765.2,97.6,765.3,97.2,765.1,96.8"/>
		<path class="st0" d="M139,71.1l-25.3-13.2l-21-11L3.3,0.3C3,0.1,2.7,0,2.3,0C2.1,0,2,0,1.8,0.1c-0.2,0-0.4,0.1-0.5,0.2
			C1.1,0.4,0.9,0.4,0.8,0.6L0.6,0.6L0.5,0.9L0.3,1.1v0.1C0.2,1.3,0.2,1.5,0.2,1.6C0.1,1.9,0,2.1,0,2.4c0,0.2,0.1,0.4,0.1,0.6
			c0.1,0.2,0.2,0.5,0.3,0.7l65.2,88L48,123.7c-0.1,0.2-0.2,0.4-0.2,0.7c0,0.2-0.1,0.4-0.1,0.5c0,0.3,0.1,0.5,0.2,0.7
			c0.1,0.2,0.2,0.4,0.3,0.6l0.2,0.2h0.1l0.3,0.3h0.2c0.3,0.2,0.7,0.3,1.1,0.3c0.4,0,0.8-0.1,1.2-0.3l88-51.7c1.1-0.6,1.5-2,0.9-3.1
			C139.8,71.5,139.4,71.2,139,71.1 M133.3,73.1l-28.2,16.6l-9.8-8.7l17.8-18.4L133.3,73.1z M74.1,103.1l2.6,3.4l-13.5,8L74.1,103.1z
			 M16.8,18.1L76.9,71L68,87.2L16.8,18.1z M71.4,99.4L60.2,111l8.4-15.4L71.4,99.4z M17.8,12.9l70.7,36.9l-9.4,17.1L17.8,12.9z
			 M88.7,81.4L74.6,96.1L71,91.2L80.4,74L88.7,81.4z M82.7,70l9.9-18l16.3,8.5l-17,17.6L82.7,70z M101,92.2l-20.4,12l-3.3-4.4
			l14.8-15.4L101,92.2z"/>
	</g>
</g>
</svg>
