<svg xmlns="http://www.w3.org/2000/svg" viewBox="0 0 765.2 127.07"><defs><style>.cls-1{fill:#2e353c;}</style></defs><g id="Capa_2" data-name="Capa 2"><g id="Capa_1-2" data-name="Capa 1"><path class="cls-1" d="M506.58,100.32a32.81,32.81,0,1,1,32.94-32.81,32.92,32.92,0,0,1-32.94,32.81m0-61.33a28.52,28.52,0,1,0,28.63,28.52A28.6,28.6,0,0,0,506.58,39"/><path class="cls-1" d="M203.88,94.35h-36.7v-56a1.25,1.25,0,0,0-1.26-1.26h-2a1.26,1.26,0,0,0-1.27,1.26V96.47a2.15,2.15,0,0,0,2.27,2.13h39a1.25,1.25,0,0,0,1.26-1.26V95.61a1.25,1.25,0,0,0-1.26-1.26"/><path class="cls-1" d="M246.81,38.35a2.48,2.48,0,0,0-4.07,0l-29,57.23-.6,1.21a1.28,1.28,0,0,0,.06,1.23,1.27,1.27,0,0,0,1.08.59h2.2a1.27,1.27,0,0,0,1.18-.81l27.09-53.56,26.88,53,.2.52a1.27,1.27,0,0,0,1.18.81h2.2a1.27,1.27,0,0,0,1.08-.59,1.28,1.28,0,0,0,.06-1.23Z"/><path class="cls-1" d="M392.16,37.26a2.27,2.27,0,0,0-2.6,1.07L361.71,91.66,333.78,38.34a2.27,2.27,0,0,0-2.6-1.08,2.08,2.08,0,0,0-1.7,2V97.34a1.26,1.26,0,0,0,1.27,1.26h2A1.25,1.25,0,0,0,334,97.34V48.39l25.67,49a2.48,2.48,0,0,0,4.06,0l25.59-49,.09,49a1.26,1.26,0,0,0,1.27,1.26h2A1.26,1.26,0,0,0,394,97.34l-.1-58.08a2.08,2.08,0,0,0-1.69-2"/><path class="cls-1" d="M465.19,96.78,435.62,38.35a2.48,2.48,0,0,0-4.07,0l-29,57.23-.6,1.21a1.26,1.26,0,0,0,1.13,1.82h2.2a1.27,1.27,0,0,0,1.19-.81l27.08-53.56,26.89,53,.2.52a1.26,1.26,0,0,0,1.18.81h2.2a1.24,1.24,0,0,0,1.07-.59,1.25,1.25,0,0,0,.07-1.23"/><path class="cls-1" d="M422.79,30.61v3a.74.74,0,0,0,.74.73h20.11a.73.73,0,0,0,.73-.73v-3a.74.74,0,0,0-.73-.74H423.53a.74.74,0,0,0-.74.74"/><path class="cls-1" d="M496.1,105.63v2.87a.71.71,0,0,0,.72.71h19.52a.71.71,0,0,0,.72-.71v-2.87a.71.71,0,0,0-.72-.71H496.82a.71.71,0,0,0-.72.71"/><path class="cls-1" d="M600.86,37.22h-2.2a1.26,1.26,0,0,0-1.27,1.26V78.62c0,8.67-9.29,15.73-20.71,15.73S556,87.29,556,78.62l.1-39.13.1-.86a1.27,1.27,0,0,0-1.26-1.41h-2.2a1.26,1.26,0,0,0-1.27,1.26V78.62c0,11,11.33,20,25.24,20s25.24-9,25.24-20l.1-39.13.1-.87a1.27,1.27,0,0,0-1.26-1.4"/><path class="cls-1" d="M621.74,37.13h-2a1.26,1.26,0,0,0-1.27,1.26v59a1.26,1.26,0,0,0,1.27,1.26h2A1.25,1.25,0,0,0,623,97.34V38.39a1.25,1.25,0,0,0-1.26-1.26"/><path class="cls-1" d="M692.57,37.13h-2a1.26,1.26,0,0,0-1.27,1.26l-.09,51.92L645.39,37.94a2.31,2.31,0,0,0-2.57-.62,2.09,2.09,0,0,0-1.47,1.94V97.34a1.26,1.26,0,0,0,1.27,1.26h2a1.26,1.26,0,0,0,1.27-1.26V45.43L689.69,97.8a2.33,2.33,0,0,0,2.58.62,2.09,2.09,0,0,0,1.46-1.94l.1-58.09a1.25,1.25,0,0,0-1.26-1.26"/><path class="cls-1" d="M765.07,96.78l-.6-1.21h0l-29-57.21a2.48,2.48,0,0,0-4.07,0l-29,57.23-.6,1.21a1.28,1.28,0,0,0,.06,1.23,1.27,1.27,0,0,0,1.08.59h2.19a1.27,1.27,0,0,0,1.19-.81l27.08-53.56,26.89,53,.2.52a1.27,1.27,0,0,0,1.19.81h2.19A1.27,1.27,0,0,0,765,98a1.28,1.28,0,0,0,.06-1.23"/><path class="cls-1" d="M139,71.09,113.67,57.86l-21-11L3.31.25a2.31,2.31,0,0,0-1-.25,2.16,2.16,0,0,0-.51.06,1.9,1.9,0,0,0-.55.22A3.1,3.1,0,0,0,.77.55L.64.61.46.87l-.19.21,0,.13a1.59,1.59,0,0,0-.12.4A2,2,0,0,0,0,2.37a2,2,0,0,0,.12.57,1.92,1.92,0,0,0,.3.66l65.21,88L48,123.72a1.5,1.5,0,0,0-.2.65,1.87,1.87,0,0,0-.06.54,2.18,2.18,0,0,0,.17.73,1.75,1.75,0,0,0,.3.57l.16.2.06,0,.3.29.18,0a2.19,2.19,0,0,0,1.08.29,2.25,2.25,0,0,0,1.16-.32L139.11,75a2.26,2.26,0,0,0-.09-4m-5.73,2.12L105.14,89.76,95.3,81.1l17.78-18.44ZM74.11,103.07l2.55,3.44-13.53,8Zm-57.33-85L76.94,71,68,87.23Zm54.6,81.33L60.16,111,68.6,95.62ZM17.82,12.94l70.71,36.9L79.17,66.91ZM88.74,81.37,74.57,96.06,71,91.24l9.42-17.19ZM82.66,70l9.89-18,16.34,8.53-17,17.63ZM101,92.17l-20.44,12-3.28-4.43,14.84-15.4Z"/></g></g></svg>